Coordinates
version=1
nRows=65
nColumns=12
inDegrees=yes

Units are S.I. units (second, meters, Newtons, ...)
Angles are in degrees

endheader
time	SC_y	SC_z	SC_x	AC_y	AC_z	AC_x	GH_y	GH_z	GH_yy	EL_x	PS_y
       0.0              -33.04          16.04          53.03          51.95          7.127         -12.84          152.6          74.68         -78.57          10.32          23.27
  0.004105              -33.04          16.05          53.03          51.95          7.125         -12.84          152.6          74.68         -78.56          10.33          23.29
  0.008209              -33.04          16.05          53.02          51.95          7.123         -12.83          152.6          74.67         -78.55          10.35           23.3
   0.01231              -33.04          16.05          53.01          51.95          7.121         -12.83          152.6          74.67         -78.53          10.36          23.32
   0.01642              -33.04          16.06           53.0          51.95          7.118         -12.82          152.6          74.66         -78.52          10.38          23.34
   0.02052              -33.03          16.06           53.0          51.95          7.116         -12.82          152.6          74.66          -78.5           10.4          23.36
   0.02463              -33.03          16.07          52.99          51.95          7.113         -12.81          152.6          74.65         -78.49          10.41          23.38
   0.02873              -33.03          16.07          52.98          51.96           7.11         -12.81          152.6          74.65         -78.47          10.43           23.4
   0.03284              -33.03          16.08          52.97          51.96          7.107          -12.8          152.6          74.64         -78.45          10.45          23.42
   0.03694              -33.03          16.08          52.96          51.96          7.104         -12.79          152.6          74.63         -78.43          10.47          23.45
   0.04105              -33.02          16.09          52.95          51.96          7.101         -12.79          152.6          74.63         -78.41           10.5          23.47
   0.04515              -33.02          16.09          52.94          51.96          7.097         -12.78          152.6          74.62         -78.39          10.52           23.5
   0.04926              -33.02           16.1          52.92          51.97          7.093         -12.77          152.6          74.61         -78.36          10.55          23.53
   0.05336              -33.02          16.11          52.91          51.97          7.088         -12.76          152.6           74.6         -78.34          10.58          23.57
   0.05747              -33.01          16.12          52.89          51.97          7.083         -12.75          152.5          74.59         -78.31          10.61           23.6
   0.06157              -33.01          16.12          52.88          51.97          7.078         -12.74          152.5          74.58         -78.28          10.65          23.64
   0.06567              -33.01          16.13          52.86          51.98          7.073         -12.73          152.5          74.57         -78.24          10.68          23.69
   0.06978               -33.0          16.14          52.84          51.98          7.066         -12.71          152.5          74.56         -78.21          10.73          23.73
   0.07388               -33.0          16.15          52.82          51.98           7.06          -12.7          152.5          74.54         -78.17          10.77          23.78
   0.07799              -32.99          16.17          52.79          51.99          7.052         -12.68          152.5          74.53         -78.12          10.82          23.84
   0.08209              -32.99          16.18          52.77          51.99          7.044         -12.67          152.5          74.51         -78.07          10.87           23.9
    0.0862              -32.98          16.19          52.74           52.0          7.035         -12.65          152.5          74.49         -78.02          10.93          23.97
    0.0903              -32.98          16.21          52.71           52.0          7.026         -12.63          152.4          74.47         -77.96           11.0          24.04
   0.09441              -32.97          16.23          52.67          52.01          7.015          -12.6          152.4          74.45          -77.9          11.07          24.12
   0.09851              -32.96          16.25          52.63          52.02          7.003         -12.58          152.4          74.43         -77.82          11.15          24.22
    0.1026              -32.95          16.27          52.59          52.02          6.989         -12.55          152.4           74.4         -77.74          11.24          24.32
    0.1067              -32.94          16.29          52.54          52.03          6.974         -12.52          152.3          74.37         -77.65          11.34          24.43
    0.1108              -32.93          16.32          52.49          52.04          6.957         -12.48          152.3          74.34         -77.55          11.46          24.56
    0.1149              -32.92          16.35          52.43          52.05          6.938         -12.44          152.3           74.3         -77.44          11.58          24.71
     0.119               -32.9          16.39          52.36          52.06          6.916          -12.4          152.2          74.25          -77.3          11.73          24.87
    0.1231              -32.89          16.43          52.28          52.08          6.891         -12.34          152.2           74.2         -77.16           11.9          25.06
    0.1272              -32.87          16.48          52.19          52.09          6.863         -12.28          152.1          74.14         -76.98          12.09          25.28
    0.1313              -32.85          16.53          52.08          52.11           6.83         -12.21          152.0          74.08         -76.79          12.31          25.53
    0.1355              -32.82          16.59          51.96          52.13          6.792         -12.13          152.0           74.0         -76.56          12.56          25.82
    0.1396              -32.79          16.67          51.81          52.16          6.747         -12.04          151.9          73.91         -76.29          12.86          26.16
    0.1437              -32.76          16.75          51.64          52.19          6.694         -11.92          151.8           73.8         -75.97          13.21          26.56
    0.1478              -32.72          16.86          51.44          52.22          6.631         -11.79          151.7          73.67         -75.59          13.63          27.04
    0.1519              -32.67          16.98           51.2          52.27          6.556         -11.63          151.5          73.52         -75.14          14.14          27.61
     0.156              -32.61          17.13          50.91          52.32          6.465         -11.44          151.3          73.34          -74.6          14.74           28.3
    0.1601              -32.54          17.31          50.55          52.38          6.354          -11.2          151.1          73.11         -73.93          15.49          29.15
    0.1642              -32.45          17.54          50.11          52.46          6.216         -10.91          150.8          72.83         -73.11           16.4          30.19
    0.1683              -32.34          17.82          49.57          52.55          6.045         -10.55          150.5          72.49         -72.08          17.55          31.49
    0.1724               -32.2          18.17          48.88          52.67           5.83          -10.1          150.1          72.05         -70.79          18.99          33.13
    0.1765              -32.02          18.62           48.0          52.83          5.556         -9.515          149.5          71.49         -69.14          20.82          35.21
    0.1806              -31.79          19.19          46.87          53.03          5.205         -8.773          148.8          70.78         -67.04          23.16          37.88
    0.1847               -31.5          19.93          45.43          53.28          4.755          -7.82          147.9          69.87         -64.34          26.17           41.3
    0.1888              -31.12          20.87          43.59           53.6           4.18         -6.603          146.8           68.7         -60.89          30.01          45.67
    0.1929              -30.65          22.05          41.27          54.01          3.456         -5.072          145.4          67.24         -56.55          34.84          51.16
     0.197              -30.08           23.5          38.45           54.5          2.575         -3.207          143.6          65.45         -51.26          40.72          57.85
    0.2011              -29.41          25.17          35.18          55.07          1.554         -1.045          141.6          63.38         -45.14          47.55          65.61
    0.2052              -28.69          26.98          31.64          55.69         0.4481          1.296          139.4          61.14          -38.5          54.93          74.02
    0.2093              -27.97          28.79          28.09          56.31        -0.6577          3.637          137.3          58.89         -31.87          62.32          82.42
    0.2134              -27.31          30.46          24.82          56.89         -1.679          5.798          135.2          56.82         -25.74          69.14          90.18
    0.2175              -26.73           31.9           22.0          57.38          -2.56          7.664          133.5          55.04         -20.46          75.03          96.87
    0.2217              -26.26          33.09          19.68          57.79         -3.283          9.194          132.1          53.57         -16.12          79.86          102.4
    0.2258              -25.89          34.03          17.84          58.11         -3.858          10.41          130.9           52.4         -12.67           83.7          106.7
    0.2299               -25.6          34.77           16.4          58.36         -4.308          11.36          130.0          51.49          -9.97           86.7          110.2
     0.234              -25.37          35.34          15.27          58.56         -4.659          12.11          129.3          50.78         -7.865          89.05          112.8
    0.2381              -25.19          35.79           14.4          58.71         -4.933          12.69          128.8          50.22         -6.221          90.88          114.9
    0.2422              -25.05          36.14           13.7          58.83         -5.149          13.14          128.4          49.79         -4.928          92.32          116.5
    0.2463              -24.94          36.42          13.16          58.93          -5.32          13.51          128.0          49.44         -3.901          93.46          117.8
    0.2504              -24.85          36.65          12.72          59.01         -5.457           13.8          127.8          49.16         -3.078          94.38          118.9
    0.2545              -24.77          36.83          12.36          59.07         -5.569          14.03          127.6          48.94         -2.411          95.12          119.7
    0.2586              -24.72          36.98          12.07          59.12          -5.66          14.22          127.4          48.75         -1.865          95.73          120.4
    0.2627              -24.67           37.1          11.83          59.16         -5.735          14.38          127.2           48.6         -1.413          96.23          121.0
